<svg xmlns="http://www.w3.org/2000/svg" viewBox="0 0 283.46 283.46"><defs><style>.cls-1{fill:#ebebeb;}.cls-2{fill:#ffbe00;}.cls-3{fill:#524e5c;}.cls-4,.cls-5,.cls-6,.cls-7{fill:none;}.cls-4,.cls-6{stroke:#524e5c;}.cls-4,.cls-5,.cls-6{stroke-linejoin:round;}.cls-4,.cls-5{stroke-width:4px;}.cls-5{stroke:#ffbe00;}.cls-6{stroke-width:9px;}</style></defs><g id="Background"><path class="cls-1" d="M196.16,283.46c28.72,0,49.45-3,66.89-20.41s20.41-34.39,20.41-66.89V87.31c0-28.73-3-49.46-20.41-66.9S228.66,0,196.16,0H87.31C58.58,0,37.85,3,20.41,20.41S0,54.8,0,87.31V196.16c0,28.72,3,49.45,20.41,66.89s34.39,20.41,66.9,20.41Z"/></g><g id="icon"><rect class="cls-2" x="52.85" y="52.85" width="177.76" height="177.76" rx="16.88"/><rect class="cls-3" x="52.85" y="131.25" width="28.2" height="62.32" rx="5.67"/><rect class="cls-4" x="52.85" y="131.25" width="28.2" height="62.32" rx="5.67"/><rect class="cls-3" x="202.41" y="89.27" width="28.2" height="62.32" rx="5.67"/><rect class="cls-4" x="202.41" y="89.27" width="28.2" height="62.32" rx="5.67"/><rect class="cls-3" x="121.1" y="121.1" width="41.27" height="41.27" rx="6.35"/><rect class="cls-4" x="121.1" y="121.1" width="41.27" height="41.27" rx="6.35"/><line class="cls-4" x1="81.05" y1="182.06" x2="91.77" y2="182.06"/><line class="cls-4" x1="81.05" y1="142.76" x2="91.77" y2="142.76"/><line class="cls-4" x1="81.05" y1="152.58" x2="91.77" y2="152.58"/><line class="cls-4" x1="81.05" y1="162.41" x2="91.77" y2="162.41"/><line class="cls-4" x1="81.05" y1="172.24" x2="91.77" y2="172.24"/><line class="cls-4" x1="202.41" y1="100.77" x2="191.7" y2="100.77"/><line class="cls-4" x1="202.41" y1="140.08" x2="191.7" y2="140.08"/><line class="cls-4" x1="202.41" y1="130.25" x2="191.7" y2="130.25"/><line class="cls-4" x1="202.41" y1="120.42" x2="191.7" y2="120.42"/><line class="cls-4" x1="202.41" y1="110.6" x2="191.7" y2="110.6"/><rect class="cls-1" x="107.57" y="52.85" width="32.21" height="25.16" rx="3.4"/><rect class="cls-4" x="107.57" y="52.85" width="32.21" height="25.16" rx="3.4"/><rect class="cls-1" x="164.86" y="52.85" width="32.21" height="25.16" rx="3.4"/><rect class="cls-4" x="164.86" y="52.85" width="32.21" height="25.16" rx="3.4"/><rect class="cls-1" x="143.68" y="205.45" width="32.21" height="25.16" rx="3.4"/><rect class="cls-4" x="143.68" y="205.45" width="32.21" height="25.16" rx="3.4"/><rect class="cls-1" x="86.4" y="205.45" width="32.21" height="25.16" rx="3.4"/><rect class="cls-4" x="86.4" y="205.45" width="32.21" height="25.16" rx="3.4"/><rect class="cls-1" x="52.85" y="86.4" width="25.16" height="32.21" rx="3.4"/><rect class="cls-4" x="52.85" y="86.4" width="25.16" height="32.21" rx="3.4"/><path class="cls-5" d="M152.12,138.35v10a4.14,4.14,0,0,1-4.13,4.13h-8.77"/><line class="cls-4" x1="129.09" y1="113.06" x2="129.09" y2="121.1"/><line class="cls-4" x1="154.37" y1="113.06" x2="154.37" y2="121.1"/><line class="cls-4" x1="145.95" y1="113.06" x2="145.95" y2="121.1"/><line class="cls-4" x1="137.52" y1="113.06" x2="137.52" y2="121.1"/><line class="cls-4" x1="170.4" y1="129.09" x2="162.37" y2="129.09"/><line class="cls-4" x1="170.4" y1="154.37" x2="162.37" y2="154.37"/><line class="cls-4" x1="170.4" y1="145.95" x2="162.37" y2="145.95"/><line class="cls-4" x1="170.4" y1="137.52" x2="162.37" y2="137.52"/><line class="cls-4" x1="154.37" y1="170.4" x2="154.37" y2="162.37"/><line class="cls-4" x1="129.09" y1="170.4" x2="129.09" y2="162.37"/><line class="cls-4" x1="137.52" y1="170.4" x2="137.52" y2="162.37"/><line class="cls-4" x1="145.95" y1="170.4" x2="145.95" y2="162.37"/><line class="cls-4" x1="113.06" y1="154.37" x2="121.1" y2="154.37"/><line class="cls-4" x1="113.06" y1="129.09" x2="121.1" y2="129.09"/><line class="cls-4" x1="113.06" y1="137.52" x2="121.1" y2="137.52"/><line class="cls-4" x1="113.06" y1="145.95" x2="121.1" y2="145.95"/><rect class="cls-6" x="52.85" y="52.85" width="177.76" height="177.76" rx="16.88"/></g><g id="spec"><rect class="cls-7" width="283.46" height="283.46"/></g></svg>